REM DIRINDEX 1\3,1\2\4,1\2\5,1\2\6
REM DIRNAME cjc137,folder01,folder02,folder03,folder04,folder05
TITLE ""
FILE "137.mp3" MP3
  TRACK 01 AUDIO
    TITLE "0:"
    INDEX 01 00:00:00
  TRACK 02 AUDIO
    TITLE "4:cjc137_5845"
    INDEX 01 00:00:03
  TRACK 03 AUDIO
    TITLE "0:"
    INDEX 01 00:01:21
  TRACK 04 AUDIO
    TITLE "6:cjc137_5846"
    INDEX 01 00:01:28
  TRACK 05 AUDIO
    TITLE "0:"
    INDEX 01 00:02:36
  TRACK 06 AUDIO
    TITLE "5:cjc137_5847"
    INDEX 01 00:02:42
  TRACK 07 AUDIO
    TITLE "0:"
    INDEX 01 00:03:57
  TRACK 08 AUDIO
    TITLE "4:cjc137_5848"
    INDEX 01 00:04:68
  TRACK 09 AUDIO
    TITLE "0:"
    INDEX 01 00:06:10
  TRACK 10 AUDIO
    TITLE "6:cjc137_5849"
    INDEX 01 00:06:14
  TRACK 11 AUDIO
    TITLE "0:"
    INDEX 01 00:07:27
  TRACK 12 AUDIO
    TITLE "5:cjc137_5850"
    INDEX 01 00:07:29
  TRACK 13 AUDIO
    TITLE "0:"
    INDEX 01 00:08:46
  TRACK 14 AUDIO
    TITLE "4:cjc137_5851"
    INDEX 01 00:09:53
  TRACK 15 AUDIO
    TITLE "0:"
    INDEX 01 00:10:70
  TRACK 16 AUDIO
    TITLE "6:cjc137_5852"
    INDEX 01 00:11:01
  TRACK 17 AUDIO
    TITLE "0:"
    INDEX 01 00:12:46
  TRACK 18 AUDIO
    TITLE "5:cjc137_5853"
    INDEX 01 00:12:52
  TRACK 19 AUDIO
    TITLE "0:"
    INDEX 01 00:13:69
  TRACK 20 AUDIO
    TITLE "4:cjc137_5854"
    INDEX 01 00:15:03
  TRACK 21 AUDIO
    TITLE "0:"
    INDEX 01 00:16:20
  TRACK 22 AUDIO
    TITLE "6:cjc137_5855"
    INDEX 01 00:16:28
  TRACK 23 AUDIO
    TITLE "0:"
    INDEX 01 00:17:51
  TRACK 24 AUDIO
    TITLE "5:cjc137_5856"
    INDEX 01 00:17:55
  TRACK 25 AUDIO
    TITLE "0:"
    INDEX 01 00:18:74
  TRACK 26 AUDIO
    TITLE "4:cjc137_5857"
    INDEX 01 00:20:08
  TRACK 27 AUDIO
    TITLE "0:"
    INDEX 01 00:21:33
  TRACK 28 AUDIO
    TITLE "6:cjc137_5858"
    INDEX 01 00:21:37
  TRACK 29 AUDIO
    TITLE "0:"
    INDEX 01 00:22:54
  TRACK 30 AUDIO
    TITLE "5:cjc137_5859"
    INDEX 01 00:22:58
  TRACK 31 AUDIO
    TITLE "0:"
    INDEX 01 00:24:08
  TRACK 32 AUDIO
    TITLE "4:cjc137_5860"
    INDEX 01 00:25:15
  TRACK 33 AUDIO
    TITLE "0:"
    INDEX 01 00:26:18
  TRACK 34 AUDIO
    TITLE "6:cjc137_5861"
    INDEX 01 00:26:26
  TRACK 35 AUDIO
    TITLE "0:"
    INDEX 01 00:27:53
  TRACK 36 AUDIO
    TITLE "5:cjc137_5862"
    INDEX 01 00:27:59
  TRACK 37 AUDIO
    TITLE "0:"
    INDEX 01 00:28:60
  TRACK 38 AUDIO
    TITLE "4:cjc137_5863"
    INDEX 01 00:29:72
  TRACK 39 AUDIO
    TITLE "0:"
    INDEX 01 00:31:10
  TRACK 40 AUDIO
    TITLE "6:cjc137_5864"
    INDEX 01 00:31:18
  TRACK 41 AUDIO
    TITLE "0:"
    INDEX 01 00:32:13
  TRACK 42 AUDIO
    TITLE "5:cjc137_5865"
    INDEX 01 00:32:19
  TRACK 43 AUDIO
    TITLE "0:"
    INDEX 01 00:33:32
  TRACK 44 AUDIO
    TITLE "4:cjc137_5866"
    INDEX 01 00:34:42
  TRACK 45 AUDIO
    TITLE "0:"
    INDEX 01 00:35:53
  TRACK 46 AUDIO
    TITLE "6:cjc137_5867"
    INDEX 01 00:35:59
  TRACK 47 AUDIO
    TITLE "0:"
    INDEX 01 00:36:70
  TRACK 48 AUDIO
    TITLE "5:cjc137_5868"
    INDEX 01 00:37:01
  TRACK 49 AUDIO
    TITLE "0:"
    INDEX 01 00:38:12
  TRACK 50 AUDIO
    TITLE "4:cjc137_5869"
    INDEX 01 00:39:21
  TRACK 51 AUDIO
    TITLE "0:"
    INDEX 01 00:40:34
  TRACK 52 AUDIO
    TITLE "6:cjc137_5870"
    INDEX 01 00:40:44
  TRACK 53 AUDIO
    TITLE "0:"
    INDEX 01 00:41:59
  TRACK 54 AUDIO
    TITLE "5:cjc137_5871"
    INDEX 01 00:41:65
  TRACK 55 AUDIO
    TITLE "0:"
    INDEX 01 00:43:05
  TRACK 56 AUDIO
    TITLE "4:cjc137_5872"
    INDEX 01 00:44:16
  TRACK 57 AUDIO
    TITLE "0:"
    INDEX 01 00:45:28
  TRACK 58 AUDIO
    TITLE "6:cjc137_5873"
    INDEX 01 00:45:37
  TRACK 59 AUDIO
    TITLE "0:"
    INDEX 01 00:46:43
  TRACK 60 AUDIO
    TITLE "5:cjc137_5874"
    INDEX 01 00:46:49
  TRACK 61 AUDIO
    TITLE "0:"
    INDEX 01 00:47:64
  TRACK 62 AUDIO
    TITLE "4:cjc137_5875"
    INDEX 01 00:48:73
  TRACK 63 AUDIO
    TITLE "0:"
    INDEX 01 00:50:03
  TRACK 64 AUDIO
    TITLE "6:cjc137_5876"
    INDEX 01 00:50:07
  TRACK 65 AUDIO
    TITLE "0:"
    INDEX 01 00:50:72
  TRACK 66 AUDIO
    TITLE "5:cjc137_5877"
    INDEX 01 00:51:05
  TRACK 67 AUDIO
    TITLE "0:"
    INDEX 01 00:52:08
  TRACK 68 AUDIO
    TITLE "4:cjc137_5878"
    INDEX 01 00:53:13
  TRACK 69 AUDIO
    TITLE "0:"
    INDEX 01 00:54:21
  TRACK 70 AUDIO
    TITLE "6:cjc137_5879"
    INDEX 01 00:54:30
  TRACK 71 AUDIO
    TITLE "0:"
    INDEX 01 00:55:26
  TRACK 72 AUDIO
    TITLE "5:cjc137_5880"
    INDEX 01 00:55:32
  TRACK 73 AUDIO
    TITLE "0:"
    INDEX 01 00:56:37
  TRACK 74 AUDIO
    TITLE "4:cjc137_5881"
    INDEX 01 00:57:50
  TRACK 75 AUDIO
    TITLE "0:"
    INDEX 01 00:58:69
  TRACK 76 AUDIO
    TITLE "6:cjc137_5882"
    INDEX 01 00:59:00
  TRACK 77 AUDIO
    TITLE "0:"
    INDEX 01 01:00:06
  TRACK 78 AUDIO
    TITLE "5:cjc137_5883"
    INDEX 01 01:00:15
  TRACK 79 AUDIO
    TITLE "0:"
    INDEX 01 01:01:34
  TRACK 80 AUDIO
    TITLE "4:cjc137_5884"
    INDEX 01 01:02:44
  TRACK 81 AUDIO
    TITLE "0:"
    INDEX 01 01:03:57
  TRACK 82 AUDIO
    TITLE "6:cjc137_5885"
    INDEX 01 01:03:63
  TRACK 83 AUDIO
    TITLE "0:"
    INDEX 01 01:04:70
  TRACK 84 AUDIO
    TITLE "5:cjc137_5886"
    INDEX 01 01:05:01
  TRACK 85 AUDIO
    TITLE "0:"
    INDEX 01 01:06:16
  TRACK 86 AUDIO
    TITLE "4:cjc137_5887"
    INDEX 01 01:07:23
  TRACK 87 AUDIO
    TITLE "0:"
    INDEX 01 01:08:46
  TRACK 88 AUDIO
    TITLE "6:cjc137_5888"
    INDEX 01 01:08:54
  TRACK 89 AUDIO
    TITLE "0:"
    INDEX 01 01:09:38
  TRACK 90 AUDIO
    TITLE "5:cjc137_5889"
    INDEX 01 01:09:46
  TRACK 91 AUDIO
    TITLE "0:"
    INDEX 01 01:10:69
  TRACK 92 AUDIO
    TITLE "4:cjc137_5890"
    INDEX 01 01:12:01
  TRACK 93 AUDIO
    TITLE "0:"
    INDEX 01 01:13:16
  TRACK 94 AUDIO
    TITLE "6:cjc137_5891"
    INDEX 01 01:13:22
  TRACK 95 AUDIO
    TITLE "0:"
    INDEX 01 01:14:35
  TRACK 96 AUDIO
    TITLE "5:cjc137_5892"
    INDEX 01 01:14:41
  TRACK 97 AUDIO
    TITLE "0:"
    INDEX 01 01:15:56
  TRACK 98 AUDIO
    TITLE "4:cjc137_5893"
    INDEX 01 01:16:63
  TRACK 99 AUDIO
    TITLE "0:"
    INDEX 01 01:18:25
  TRACK 100 AUDIO
    TITLE "6:cjc137_5894"
    INDEX 01 01:18:29
  TRACK 101 AUDIO
    TITLE "0:"
    INDEX 01 01:19:60
  TRACK 102 AUDIO
    TITLE "5:cjc137_5895"
    INDEX 01 01:19:64
  TRACK 103 AUDIO
    TITLE "0:"
    INDEX 01 01:21:23
  TRACK 104 AUDIO
    TITLE "4:cjc137_5896"
    INDEX 01 01:22:29
  TRACK 105 AUDIO
    TITLE "0:"
    INDEX 01 01:23:38
  TRACK 106 AUDIO
    TITLE "6:cjc137_5897"
    INDEX 01 01:23:48
  TRACK 107 AUDIO
    TITLE "0:"
    INDEX 01 01:24:37
  TRACK 108 AUDIO
    TITLE "5:cjc137_5898"
    INDEX 01 01:24:43
  TRACK 109 AUDIO
    TITLE "0:"
    INDEX 01 01:25:51
  TRACK 110 AUDIO
    TITLE "4:cjc137_5899"
    INDEX 01 01:26:64
  TRACK 111 AUDIO
    TITLE "0:"
    INDEX 01 01:28:02
  TRACK 112 AUDIO
    TITLE "6:cjc137_5900"
    INDEX 01 01:28:12
  TRACK 113 AUDIO
    TITLE "0:"
    INDEX 01 01:29:03
  TRACK 114 AUDIO
    TITLE "5:cjc137_5901"
    INDEX 01 01:29:11
  TRACK 115 AUDIO
    TITLE "0:"
    INDEX 01 01:30:24
  TRACK 116 AUDIO
    TITLE "4:cjc137_5902"
    INDEX 01 01:31:34
  TRACK 117 AUDIO
    TITLE "0:"
    INDEX 01 01:32:49
  TRACK 118 AUDIO
    TITLE "6:cjc137_5903"
    INDEX 01 01:32:57
  TRACK 119 AUDIO
    TITLE "0:"
    INDEX 01 01:33:66
  TRACK 120 AUDIO
    TITLE "5:cjc137_5904"
    INDEX 01 01:33:70
  TRACK 121 AUDIO
    TITLE "0:"
    INDEX 01 01:35:12
